<?xml version="1.0" encoding="utf-8"?>
<!-- Generator: Adobe Illustrator 23.0.6, SVG Export Plug-In . SVG Version: 6.00 Build 0)  -->
<svg version="1.1" id="Ebene_1" xmlns="http://www.w3.org/2000/svg" xmlns:xlink="http://www.w3.org/1999/xlink" x="0px" y="0px"
	 viewBox="0 0 19.4 18.9" style="enable-background:new 0 0 19.4 18.9;" xml:space="preserve">
<style type="text/css">
	.st0{fill-rule:evenodd;clip-rule:evenodd;fill:#FFFFFF;}
</style>
<path id="github" class="st0" d="M9.7,0C4.3,0,0,4.3,0,9.7c0,4.2,2.7,7.9,6.6,9.2c0.5,0.1,0.7-0.2,0.7-0.5c0-0.2,0-0.8,0-1.6
	C4.6,17.4,4,15.5,4,15.5c-0.2-0.6-0.6-1.1-1.1-1.4C2.1,13.5,3,13.5,3,13.5c0.6,0.1,1.2,0.5,1.5,1c0.5,1,1.8,1.4,2.8,0.8l0,0
	c0-0.5,0.3-1,0.6-1.3c-2.2-0.2-4.4-1.1-4.4-4.8c0-1,0.3-1.9,1-2.6C4.2,5.8,4.2,4.8,4.6,4c0,0,0.8-0.3,2.7,1c1.6-0.4,3.3-0.4,4.9,0
	c1.8-1.3,2.7-1,2.7-1c0.4,0.8,0.4,1.7,0.1,2.6c0.7,0.7,1,1.6,1,2.6c0,3.7-2.3,4.5-4.4,4.8c0.5,0.5,0.7,1.1,0.7,1.8
	c0,1.3,0,2.3,0,2.7c0,0.3,0.2,0.6,0.7,0.5c5.1-1.7,7.8-7.2,6.2-12.2C17.6,2.7,13.9,0,9.7,0"/>
</svg>
