<?xml version="1.0" encoding="utf-8"?>
<!-- Generator: Adobe Illustrator 23.0.6, SVG Export Plug-In . SVG Version: 6.00 Build 0)  -->
<svg version="1.1" id="Ebene_1" xmlns="http://www.w3.org/2000/svg" xmlns:xlink="http://www.w3.org/1999/xlink" x="0px" y="0px"
	 viewBox="0 0 21.2 20.3" style="enable-background:new 0 0 21.2 20.3;" xml:space="preserve">
<style type="text/css">
	.st0{fill:#FFFFFF;}
</style>
<path id="LinkedIn" class="st0" d="M21.2,12.4v7.9h-4.6V13c0-1.8-0.7-3.1-2.3-3.1c-1.1,0-2,0.7-2.3,1.7c-0.1,0.4-0.2,0.7-0.2,1.1
	v7.6H7.3c0,0,0.1-12.4,0-13.7h4.6v1.9l0,0l0,0l0,0C12.7,7,14.3,6.2,16,6.2C19,6.3,21.2,8.2,21.2,12.4z M2.6,0C1.3-0.1,0.1,0.9,0,2.2
	s0.9,2.5,2.2,2.6c0.1,0,0.2,0,0.3,0l0,0c1.4,0,2.5-0.9,2.6-2.2S4.2,0.1,2.9,0C2.8,0,2.7,0,2.6,0z M0.3,20.3h4.6V6.6H0.3V20.3z"/>
</svg>
