<?xml version="1.0" encoding="utf-8"?>
<!-- Generator: Adobe Illustrator 23.0.6, SVG Export Plug-In . SVG Version: 6.00 Build 0)  -->
<svg version="1.1" id="Ebene_1" xmlns="http://www.w3.org/2000/svg" xmlns:xlink="http://www.w3.org/1999/xlink" x="0px" y="0px"
	 viewBox="0 0 24.6 20" style="enable-background:new 0 0 24.6 20;" xml:space="preserve">
<style type="text/css">
	.st0{fill:#FFFFFF;}
</style>
<path id="twitter" class="st0" d="M24.6,2.4c-0.9,0.4-1.9,0.7-2.9,0.8c1.1-0.6,1.8-1.6,2.2-2.8c-1,0.6-2.1,1-3.2,1.2
	c-1.9-2-5.1-2.1-7.1-0.2c-1.3,1.2-1.9,3.1-1.5,4.8C8.1,6,4.3,4.1,1.7,0.9C0.4,3.2,1.1,6.2,3.3,7.7C2.5,7.6,1.7,7.4,1,7v0.1
	c0,2.4,1.7,4.5,4.1,5c-0.4,0.1-0.9,0.2-1.3,0.2c-0.3,0-0.6,0-1-0.1c0.7,2.1,2.6,3.5,4.7,3.5c-1.8,1.4-4,2.2-6.3,2.2
	c-0.4,0-0.8,0-1.2-0.1C2.3,19.2,5,20,7.7,20c7.9,0.1,14.3-6.3,14.4-14.2c0-0.1,0-0.1,0-0.2V4.9C23.1,4.3,24,3.4,24.6,2.4z"/>
</svg>
