<?xml version="1.0" encoding="utf-8"?>
<!-- Generator: Adobe Illustrator 24.1.2, SVG Export Plug-In . SVG Version: 6.00 Build 0)  -->
<svg version="1.1" id="Ebene_1" xmlns="http://www.w3.org/2000/svg" xmlns:xlink="http://www.w3.org/1999/xlink" x="0px" y="0px"
	 viewBox="0 0 24 24" style="enable-background:new 0 0 24 24;" xml:space="preserve">
<style type="text/css">
	.st0{fill:none;}
	.st1{fill:#858585;}
</style>
<path class="st0" d="M0,0.1h24v24H0V0.1z"/>
<path class="st1" d="M21.9,11.1c-0.4-4-3.2-7.4-7-8.5c-0.3-0.1-0.5-0.2-0.8-0.2c-0.2,0-0.3-0.1-0.5-0.1c-0.1,0-0.2,0-0.3,0
	c-0.2,0-0.4,0-0.6-0.1h-0.1c-0.3,0-0.5,0-0.8,0c-5.5,0-10,4.5-10,10s4.5,10,10,10s10-4.5,10-10C22,11.7,22,11.4,21.9,11.1z
	 M9.2,19.6c-0.1-0.1-0.2-0.1-0.4-0.2c-0.2-0.1-0.4-0.2-0.7-0.3c-0.5-0.3-0.9-0.5-1.3-0.9c-0.1-0.1-0.3-0.2-0.4-0.3
	c-0.5-0.5-1-1-1.3-1.7c-0.3-0.5-0.5-0.9-0.7-1.5C4.2,13.9,4,13,4,12.1c0-0.6,0.1-1.2,0.2-1.8L9,15.1v1c0,1.1,0.9,2,2,2V20
	c-0.6-0.1-1.1-0.2-1.6-0.4c0.1,0,0.1,0.1,0.2,0.1C9.5,19.7,9.4,19.6,9.2,19.6z M19.8,13.9c-0.1,0.3-0.2,0.6-0.3,0.9
	c-0.1,0.3-0.2,0.6-0.4,0.8c-0.2,0.3-0.4,0.6-0.6,0.9c0,0,0,0,0,0c-0.2,0.3-0.4,0.6-0.7,0.8c-0.3-0.8-1-1.4-1.9-1.4h-1v-3
	c0-0.5-0.5-1-1-1H8v-2h2c0.5,0,1-0.5,1-1v-2h2c1.1,0,2-0.9,2-2V4.6c2.6,1.1,4.6,3.5,5,6.4c0,0.3,0.1,0.7,0.1,1
	C20,12.7,19.9,13.3,19.8,13.9z"/>
</svg>
